# This file uses centimeters as units for non-parametric coordinates.

mtllib lighting.mtl
g default
v 0.156185 0.195196 0.328747
v 0.500000 0.195196 0.328747
v 0.156185 0.960522 -0.069500
v 0.500000 0.960522 -0.069500
v 0.156185 1.304065 0.252584
v 0.500000 1.304065 0.252584
v 0.156185 2.217118 -0.581126
v 0.500000 2.217118 -0.581126
v 0.156185 1.304065 -0.145572
v 0.500000 1.304065 -0.145572
v 0.156185 1.077524 -0.452423
v 0.500000 1.077524 -0.452423
v 0.231524 0.785051 0.778370
v 0.426229 0.785051 0.778370
v 0.185250 0.903923 0.357054
v 0.384538 0.903923 0.357054
v 0.185250 0.565446 0.653843
v 0.384538 0.565446 0.653843
v 0.527452 1.540195 0.570470
v 0.211565 1.529186 0.580424
v 0.524780 1.565802 0.410199
v 0.208893 1.554794 0.420153
v 0.492514 1.982257 0.722127
v 0.176626 1.971249 0.732081
v 0.505080 1.832511 0.861385
v 0.189192 1.821503 0.871339
v 0.511596 1.754853 0.933604
v 0.195709 1.743845 0.943558
v 0.231524 0.941804 -0.846611
v 0.426229 0.941804 -0.846611
v 0.193879 0.228899 0.015158
v 0.393167 0.228899 0.015158
v 0.185250 0.934487 -0.556210
v 0.384538 0.934487 -0.556210
v 0.453372 1.985888 0.493903
v 0.297550 1.982529 0.496305
v 0.451161 2.009624 0.445054
v 0.295339 2.006266 0.447456
v 0.433599 2.275417 0.573823
v 0.277778 2.272058 0.576224
v 0.441499 2.169487 0.607054
v 0.285677 2.166129 0.609455
v 0.445595 2.114552 0.624288
v 0.289774 2.111194 0.626689
v 0.261882 1.278331 -0.593837
v 0.402344 1.278331 -0.593837
v 0.261882 1.295458 -0.507553
v 0.402344 1.295458 -0.507553
v 0.261882 1.576934 -0.674256
v 0.402344 1.576934 -0.674256
v 0.261882 1.475976 -0.749562
v 0.402344 1.475976 -0.749562
v 0.261882 1.423620 -0.788615
v 0.402344 1.423620 -0.788615
v 0.313430 2.483365 -0.195367
v 0.508134 2.483365 -0.195367
v 0.267156 2.094856 0.006371
v 0.466444 2.094856 0.006371
v 0.267156 2.542907 0.049966
v 0.466444 2.542907 0.049966
vt 0.987358 0.941417
vt 0.870514 0.941417
vt 0.870514 0.648218
vt 0.987358 0.648218
vt 0.870514 0.488178
vt 0.987358 0.488178
vt 0.870514 0.067985
vt 0.987358 0.067985
vt 0.737496 0.074873
vt 0.853506 0.074873
vt 0.853506 0.416217
vt 0.737496 0.416217
vt 0.853506 0.544915
vt 0.737496 0.544915
vt 0.853506 0.942550
vt 0.737496 0.942550
vt 0.464913 0.805866
vt 0.433395 0.406628
vt 0.513403 0.516695
vt 0.562988 0.407894
vt 0.671102 0.489262
vt 0.631189 0.070954
vt 0.398094 0.742276
vt 0.349536 0.453108
vt 0.429536 0.343034
vt 0.191834 0.425656
vt 0.299950 0.344291
vt 0.231742 0.007347
vt 0.361248 0.258231
vt 0.295545 0.266029
vt 0.292080 0.116624
vt 0.359341 0.108639
vt 0.415367 0.070559
vt 0.501357 0.197093
vt 0.445358 0.235157
vt 0.451212 0.302628
vt 0.366962 0.324156
vt 0.553530 0.127534
vt 0.272339 0.486912
vt 0.206126 0.571550
vt 0.163362 0.536713
vt 0.229581 0.452054
vt 0.059348 0.509686
vt 0.127918 0.710321
vt 0.023901 0.683272
vt 0.127475 0.817837
vt 0.197533 0.711647
vt 0.197086 0.819111
vt 0.233635 0.712334
vt 0.233185 0.819771
vt 0.338027 0.686812
vt 0.310523 0.546013
vt 0.200473 0.959437
vt 0.156431 0.992655
vt 0.731252 0.901146
vt 0.665377 0.907185
vt 0.641843 0.527651
vt 0.709307 0.521471
vt 0.574685 0.518785
vt 0.598549 0.833163
vt 0.531417 0.824303
vt 0.542338 0.870935
vt 0.610458 0.944100
vt 0.446342 0.876784
vt 0.005869 0.415771
vt 0.059482 0.400681
vt 0.065069 0.419286
vt 0.011455 0.434372
vt 0.078393 0.473371
vt 0.166433 0.389244
vt 0.179749 0.443321
vt 0.189106 0.338368
vt 0.130893 0.371407
vt 0.153560 0.320530
vt 0.112465 0.362156
vt 0.135124 0.311283
vt 0.078024 0.318394
vt 0.025031 0.356910
vt 0.009056 0.345859
vt 0.074903 0.298012
vt 0.068882 0.258702
vt 0.155372 0.089493
vt 0.202458 0.081619
vt 0.207390 0.111104
vt 0.160312 0.118981
vt 0.152113 0.166004
vt 0.042587 0.146922
vt 0.050786 0.099895
vt 0.010539 0.074232
vt 0.033553 0.038144
vt 0.073803 0.063809
vt 0.045486 0.019430
vt 0.085738 0.045094
vt 0.111398 0.004846
vt 0.181032 0.049238
vt 0.137489 0.192077
vt 0.056950 0.210327
vt 0.052044 0.188676
vt 0.394018 0.838816
vt 0.444740 0.881280
vt 0.338384 0.986267
vt 0.286443 0.942775
vt 0.220319 0.928114
vt 0.253432 0.778753
vt 0.319551 0.793409
vt 0.364660 0.742887
vt 0.438092 0.789465
vt 0.488442 0.956450
vn 0.000000 0.461607 0.887085
vn 0.000000 0.461607 0.887085
vn 0.000000 0.068524 0.997650
vn 0.000000 0.068524 0.997650
vn 0.000000 0.068524 0.997650
vn 0.000000 0.068524 0.997650
vn 0.000000 0.377094 0.926175
vn 0.000000 0.377094 0.926175
vn 0.000000 0.377094 0.926175
vn 0.000000 0.377094 0.926175
vn 0.000000 0.674293 0.738464
vn 0.000000 0.674293 0.738464
vn 0.000000 -0.430551 -0.902566
vn 0.000000 -0.430551 -0.902566
vn 0.000000 -0.112224 -0.993683
vn 0.000000 -0.112224 -0.993683
vn 0.000000 -0.112224 -0.993683
vn 0.000000 -0.112224 -0.993683
vn 0.000000 -0.393282 -0.919418
vn 0.000000 -0.393282 -0.919418
vn 0.000000 -0.393282 -0.919418
vn 0.000000 -0.393282 -0.919418
vn 0.000000 -0.662883 -0.748723
vn 0.000000 -0.662883 -0.748723
vn 1.000000 0.000000 0.000000
vn 1.000000 0.000000 0.000000
vn 1.000000 0.000000 0.000000
vn 1.000000 0.000000 0.000000
vn 1.000000 0.000000 0.000000
vn 1.000000 0.000000 0.000000
vn 1.000000 0.000000 0.000000
vn 1.000000 0.000000 0.000000
vn 1.000000 0.000000 0.000000
vn 1.000000 0.000000 0.000000
vn -1.000000 0.000000 0.000000
vn -1.000000 0.000000 0.000000
vn -1.000000 0.000000 0.000000
vn -1.000000 0.000000 0.000000
vn -1.000000 0.000000 0.000000
vn -1.000000 0.000000 0.000000
vn -1.000000 0.000000 0.000000
vn -1.000000 0.000000 0.000000
vn -1.000000 0.000000 0.000000
vn -1.000000 0.000000 0.000000
vn 0.000000 0.962426 0.271543
vn 0.000000 0.962426 0.271543
vn 0.000000 0.962426 0.271543
vn 0.000000 0.962426 0.271543
vn 0.000000 -0.659286 -0.751892
vn 0.000000 -0.659286 -0.751892
vn 0.000000 -0.659286 -0.751892
vn 0.000000 -0.659286 -0.751892
vn 0.000000 -0.493265 0.869879
vn 0.000000 -0.493265 0.869879
vn 0.000000 -0.493265 0.869879
vn 0.000000 -0.493265 0.869879
vn 0.985053 -0.113564 -0.129516
vn 0.985053 -0.113564 -0.129516
vn 0.985053 -0.113564 -0.129516
vn -0.981680 0.125618 0.143263
vn -0.981680 0.125618 0.143263
vn -0.981680 0.125618 0.143263
vn 0.029412 -0.986971 -0.158186
vn 0.029412 -0.986971 -0.158186
vn -0.041166 0.327834 -0.943838
vn -0.040840 0.314332 -0.948434
vn -0.040840 0.314332 -0.948434
vn -0.041166 0.327834 -0.943838
vn -0.046038 0.596568 -0.801241
vn -0.046038 0.596568 -0.801241
vn -0.000656 0.680968 0.732313
vn -0.000656 0.680968 0.732313
vn -0.000656 0.680968 0.732313
vn -0.000656 0.680968 0.732313
vn -0.000656 0.680968 0.732313
vn -0.000656 0.680968 0.732313
vn -0.000656 0.680967 0.732314
vn -0.000656 0.680967 0.732314
vn 0.046003 -0.859052 0.509818
vn 0.046003 -0.859052 0.509818
vn 0.046003 -0.859052 0.509818
vn 0.046003 -0.859052 0.509818
vn -0.996780 -0.080091 0.003821
vn -0.996780 -0.080091 0.003821
vn -0.996780 -0.080091 0.003821
vn -0.996780 -0.080091 0.003821
vn -0.996780 -0.080091 0.003821
vn -0.996780 -0.080091 0.003821
vn -0.996780 -0.080091 0.003821
vn 0.996780 0.080091 -0.003821
vn 0.996780 0.080091 -0.003821
vn 0.996780 0.080091 -0.003821
vn 0.996780 0.080091 -0.003821
vn 0.996780 0.080091 -0.003821
vn 0.996780 0.080091 -0.003821
vn 0.996780 0.080091 -0.003821
vn 0.000000 -0.770519 -0.637417
vn 0.000000 -0.770519 -0.637417
vn 0.000000 -0.770519 -0.637417
vn 0.000000 -0.770519 -0.637417
vn -0.000001 0.629317 0.777149
vn -0.000001 0.629317 0.777149
vn -0.000001 0.629317 0.777149
vn -0.000001 0.629317 0.777149
vn 0.000000 0.999683 0.025187
vn 0.000000 0.999683 0.025187
vn 0.000000 0.999683 0.025187
vn 0.000000 0.999683 0.025187
vn 0.981160 0.128687 0.144100
vn 0.981160 0.128687 0.144100
vn 0.981160 0.128687 0.144100
vn -0.977130 -0.140908 -0.159252
vn -0.977130 -0.140908 -0.159252
vn -0.977130 -0.140908 -0.159252
vn 0.012636 -0.899140 -0.437478
vn 0.012636 -0.899140 -0.437478
vn -0.020680 0.271514 -0.962212
vn -0.020437 0.257518 -0.966057
vn -0.020437 0.257518 -0.966057
vn -0.020680 0.271514 -0.962212
vn -0.023241 0.434637 -0.900306
vn -0.023241 0.434637 -0.900306
vn 0.008238 0.299876 0.953943
vn 0.008238 0.299876 0.953943
vn 0.008238 0.299875 0.953943
vn 0.008238 0.299875 0.953943
vn 0.008238 0.299875 0.953943
vn 0.008238 0.299875 0.953943
vn 0.008238 0.299875 0.953943
vn 0.008238 0.299875 0.953943
vn 0.026152 -0.710762 0.702946
vn 0.026152 -0.710762 0.702946
vn 0.026152 -0.710762 0.702946
vn 0.026152 -0.710762 0.702946
vn -0.997416 -0.071048 0.010621
vn -0.997416 -0.071048 0.010621
vn -0.997416 -0.071048 0.010621
vn -0.997416 -0.071048 0.010621
vn -0.997416 -0.071048 0.010621
vn -0.997416 -0.071048 0.010621
vn -0.997416 -0.071048 0.010621
vn 0.997416 0.071048 -0.010621
vn 0.997416 0.071048 -0.010621
vn 0.997416 0.071048 -0.010621
vn 0.997416 0.071048 -0.010621
vn 0.997416 0.071048 -0.010621
vn 0.997416 0.071048 -0.010621
vn 0.997416 0.071047 -0.010621
vn 0.000000 -0.980864 0.194695
vn 0.000000 -0.980864 0.194695
vn 0.000000 0.260053 0.965594
vn 0.000000 0.260053 0.965594
vn 0.000000 0.260053 0.965594
vn 0.000000 0.260053 0.965594
vn 0.000000 0.509581 0.860423
vn 0.000000 0.509581 0.860423
vn 0.000000 0.597905 -0.801567
vn 0.000000 0.597905 -0.801567
vn 0.000000 0.597904 -0.801568
vn 0.000000 0.597904 -0.801568
vn 0.000000 0.597904 -0.801568
vn 0.000000 0.597904 -0.801568
vn 0.000000 0.597904 -0.801568
vn 0.000000 0.597904 -0.801568
vn 0.000000 -0.801567 -0.597905
vn 0.000000 -0.801567 -0.597905
vn 0.000000 -0.801567 -0.597905
vn 0.000000 -0.801567 -0.597905
vn 1.000000 0.000000 0.000000
vn 1.000000 0.000000 0.000000
vn 1.000000 0.000000 0.000000
vn 1.000000 0.000000 0.000000
vn 1.000000 0.000000 0.000000
vn 1.000000 0.000000 0.000000
vn 1.000000 0.000000 0.000000
vn -1.000000 0.000000 0.000000
vn -1.000000 0.000000 0.000000
vn -1.000000 0.000000 0.000000
vn -1.000000 0.000000 0.000000
vn -1.000000 0.000000 0.000000
vn -1.000000 0.000000 0.000000
vn -1.000000 0.000000 0.000000
vn 0.000000 -0.460837 -0.887485
vn 0.000000 -0.460837 -0.887485
vn 0.000000 -0.460837 -0.887485
vn 0.000000 -0.460837 -0.887485
vn 0.000000 -0.096841 0.995300
vn 0.000000 -0.096841 0.995300
vn 0.000000 -0.096841 0.995300
vn 0.000000 -0.096841 0.995300
vn 0.000000 0.971789 -0.235850
vn 0.000000 0.971789 -0.235850
vn 0.000000 0.971789 -0.235850
vn 0.000000 0.971789 -0.235850
vn 0.985053 -0.016681 0.171443
vn 0.985053 -0.016681 0.171443
vn 0.985053 -0.016681 0.171443
vn -0.981680 0.018452 -0.189641
vn -0.981680 0.018452 -0.189641
vn -0.981680 0.018452 -0.189641
s off
g lightning_corect:polySurface1
usemtl initialShadingGroup
f 1/1/1 2/2/2 4/3/3 3/4/4
f 3/4/5 4/3/6 6/5/7 5/6/8
f 5/6/9 6/5/10 8/7/11 7/8/12
f 7/9/13 8/10/14 10/11/15 9/12/16
f 9/12/17 10/11/18 12/13/19 11/14/20
f 11/14/21 12/13/22 2/15/23 1/16/24
f 2/17/25 12/18/26 4/19/27
f 4/19/28 12/18/29 10/20/30 6/21/31
f 6/21/32 10/20/33 8/22/34
f 1/23/35 3/24/36 11/25/37
f 11/25/38 3/24/39 5/26/40 9/27/41
f 9/27/42 5/26/43 7/28/44
f 13/29/45 14/30/46 16/31/47 15/32/48
f 15/32/49 16/33/50 18/34/51 17/35/52
f 17/35/53 18/36/54 14/37/55 13/29/56
f 14/38/57 18/34/58 16/33/59
f 17/35/60 13/29/61 15/32/62
f 19/39/63 20/40/64 22/41/65 21/42/66
f 21/43/67 22/41/68 24/44/69 23/45/70
f 23/46/71 24/44/72 26/47/73 25/48/74
f 25/48/75 26/47/76 28/49/77 27/50/78
f 27/51/79 28/49/80 20/40/81 19/52/82
f 20/40/83 28/49/84 26/47/85 22/41/86
f 22/41/87 26/47/88 24/44/89
f 27/50/90 19/53/91 21/54/92 25/48/93
f 25/48/94 21/54/95 23/46/96
f 29/55/97 30/56/98 32/57/99 31/58/100
f 31/59/101 32/57/102 34/60/103 33/61/104
f 33/62/105 34/60/106 30/56/107 29/63/108
f 30/56/109 34/60/110 32/57/111
f 33/61/112 29/64/113 31/59/114
f 35/65/115 36/66/116 38/67/117 37/68/118
f 37/69/119 38/67/120 40/70/121 39/71/122
f 39/72/123 40/70/124 42/73/125 41/74/126
f 41/74/127 42/73/128 44/75/129 43/76/130
f 43/77/131 44/75/132 36/66/133 35/78/134
f 36/66/135 44/75/136 42/73/137 38/67/138
f 38/67/139 42/73/140 40/70/141
f 43/77/142 35/78/143 37/79/144 41/80/145
f 41/80/146 37/79/147 39/81/148
f 45/82/149 46/83/150 48/84/151 47/85/152
f 47/85/153 48/86/154 50/87/155 49/88/156
f 49/88/157 50/89/158 52/90/159 51/91/160
f 51/91/161 52/90/162 54/92/163 53/93/164
f 53/93/165 54/94/166 46/95/167 45/82/168
f 46/96/169 54/97/170 52/98/171 48/86/172
f 48/86/173 52/98/174 50/87/175
f 53/93/176 45/82/177 47/85/178 51/91/179
f 51/91/180 47/85/181 49/88/182
f 55/99/183 56/100/184 58/101/185 57/102/186
f 57/102/187 58/103/188 60/104/189 59/105/190
f 59/105/191 60/106/192 56/107/193 55/99/194
f 56/100/195 60/108/196 58/101/197
f 59/105/198 55/99/199 57/102/200
