# This file uses centimeters as units for non-parametric coordinates.

mtllib desert.mtl
g default
v -0.388815 0.131986 0.377938
v 0.388815 0.131986 0.377938
v -0.500000 0.541902 0.489123
v 0.500000 0.486227 0.489123
v -0.500000 0.537790 -0.510877
v 0.500000 0.486227 -0.510877
v -0.388815 0.131986 -0.399692
v 0.388815 0.131986 -0.399692
v 0.000000 0.558849 -0.010877
v 0.000000 0.486227 0.489123
v 0.500000 0.486227 -0.077921
v 0.000000 0.486227 -0.510877
v -0.500000 0.436180 -0.010877
v 0.000000 0.629246 0.247306
v -0.500000 0.518183 0.310103
v 0.500000 0.542414 0.134910
v 0.000000 0.530276 -0.207598
v 0.500000 0.436548 -0.381630
v 0.000000 0.539776 -0.142197
v -0.500000 0.449816 -0.370801
vt 0.189384 0.813600
vt 0.504008 0.811159
vt 0.550154 0.961020
vt 0.347884 0.962602
vt 0.145724 0.985737
vt 0.768419 0.328598
vt 0.971538 0.355936
vt 0.971784 0.424608
vt 0.767541 0.437416
vt 0.140643 0.329131
vt 0.343119 0.347535
vt 0.545390 0.345982
vt 0.501577 0.496544
vt 0.186945 0.498971
vt 0.651471 0.450410
vt 0.632671 0.502846
vt 0.652825 0.625565
vt 0.675209 0.711499
vt 0.654598 0.854966
vt 0.018127 0.859908
vt 0.026674 0.787412
vt 0.057164 0.657305
vt 0.050790 0.511737
vt 0.016552 0.455340
vt 0.566206 0.285027
vt 0.564528 0.193796
vt 0.769439 0.222171
vt 0.769137 0.142027
vt 0.564453 0.068891
vt 0.567648 0.016377
vt 0.769088 0.020207
vt 0.769745 0.168584
vt 0.973588 0.074507
vt 0.978333 0.220113
vt 0.563624 0.429952
vt 0.970022 0.015883
vn -0.009094 -0.290352 0.956877
vn -0.009094 -0.290352 0.956877
vn -0.009094 -0.290352 0.956877
vn -0.009094 -0.290352 0.956877
vn -0.009094 -0.290352 0.956877
vn -0.167545 0.984242 -0.056536
vn -0.153696 0.987925 -0.019543
vn -0.036138 0.961461 0.272558
vn -0.036138 0.961461 0.272558
vn -0.008441 -0.291007 -0.956684
vn -0.008441 -0.291007 -0.956684
vn -0.008441 -0.291007 -0.956684
vn -0.008441 -0.291007 -0.956684
vn -0.008441 -0.291007 -0.956684
vn 0.000000 -1.000000 0.000000
vn 0.000000 -1.000000 0.000000
vn 0.000000 -1.000000 0.000000
vn 0.000000 -1.000000 0.000000
vn 0.955483 -0.295045 0.000000
vn 0.955483 -0.295045 0.000000
vn 0.955483 -0.295045 0.000000
vn 0.955483 -0.295045 0.000000
vn 0.955483 -0.295045 0.000000
vn 0.955483 -0.295045 0.000000
vn 0.955483 -0.295045 0.000000
vn -0.949589 -0.313498 0.000725
vn -0.949589 -0.313498 0.000725
vn -0.949589 -0.313498 0.000725
vn -0.949589 -0.313498 0.000725
vn -0.949589 -0.313498 0.000725
vn -0.949589 -0.313498 0.000725
vn -0.949589 -0.313498 0.000725
vn 0.117892 0.987794 0.101802
vn 0.116827 0.992809 0.026130
vn 0.106803 0.960209 -0.258055
vn 0.106803 0.960209 -0.258055
vn 0.115775 0.988688 -0.095358
vn 0.109399 0.992154 -0.060515
vn 0.095546 0.995341 0.012956
vn 0.095546 0.995341 0.012956
vn -0.151007 0.988376 0.017609
vn -0.112121 0.992981 0.037642
vn -0.205597 0.978577 -0.010831
vn -0.205597 0.978577 -0.010831
vn -0.235227 0.939943 -0.247336
vn -0.153696 0.987925 -0.019543
vn -0.167545 0.984242 -0.056536
vn -0.235227 0.939943 -0.247336
vn 0.117169 0.941898 0.314802
vn 0.117169 0.941898 0.314802
vn 0.116827 0.992809 0.026130
vn 0.117892 0.987794 0.101802
vn 0.126094 0.980108 -0.153258
vn 0.109399 0.992154 -0.060515
vn 0.115775 0.988688 -0.095358
vn 0.126094 0.980108 -0.153258
vn 0.126094 0.980108 -0.153258
vn -0.053665 0.996281 0.067414
vn -0.053665 0.996281 0.067414
vn -0.112121 0.992981 0.037642
vn -0.151007 0.988376 0.017609
vn -0.053665 0.996281 0.067414
s off
g desert_v2:pCube2
usemtl initialShadingGroup
f 1/1/1 2/2/2 4/3/3 10/4/4 3/5/5
f 14/6/6 15/7/7 3/8/8 10/9/9
f 5/10/10 12/11/11 6/12/12 8/13/13 7/14/14
f 7/14/15 8/13/16 2/2/17 1/1/18
f 2/2/19 8/13/20 6/15/21 18/16/22 11/17/23 16/18/24 4/19/25
f 7/14/26 1/1/27 3/20/28 15/21/29 13/22/30 20/23/31 5/24/32
f 14/6/33 16/25/34 11/26/35 9/27/36
f 17/28/37 18/29/38 6/30/39 12/31/40
f 19/32/41 20/33/42 13/34/43 9/27/44
f 13/34/45 15/7/46 14/6/47 9/27/48
f 10/9/49 4/35/50 16/25/51 14/6/52
f 11/26/53 18/29/54 17/28/55 19/32/56 9/27/57
f 12/31/58 5/36/59 20/33/60 19/32/61 17/28/62
