# This file uses centimeters as units for non-parametric coordinates.

mtllib rock.mtl
g default
v 0.031785 0.092818 0.702182
v 0.289557 0.092818 0.602604
v -0.019481 0.248734 0.763977
v 0.280793 0.317548 0.619070
v 0.031407 0.092818 0.240737
v 0.280793 0.317548 0.180485
v 0.076789 0.092818 0.164019
v -0.019481 0.317548 0.404971
v -0.019481 0.092818 0.404971
v 0.289557 0.092818 0.404971
v 0.280793 0.317548 0.421436
v -0.019481 0.317548 0.602604
v -0.019481 0.092818 0.602604
v 0.137557 0.317548 0.755176
v 0.137557 0.683976 0.602604
v 0.137557 0.683976 0.404971
v 0.137557 0.683976 0.303778
v 0.137557 0.317548 0.164019
v 0.137557 0.092818 0.404971
v 0.137557 0.092818 0.602604
v 0.076789 0.092818 0.755176
vt 0.226206 0.070264
vt 0.247991 0.075143
vt 0.257536 0.155846
vt 0.223261 0.122459
vt 0.182533 0.274506
vt 0.178556 0.140249
vt 0.052548 0.068543
vt 0.021909 0.150723
vt 0.022727 0.071973
vt 0.867745 0.177855
vt 0.920757 0.177864
vt 0.900238 0.229370
vt 0.885046 0.211476
vt 0.184358 0.064599
vt 0.113607 0.063553
vt 0.115094 0.139009
vt 0.884964 0.055683
vt 0.900298 0.029787
vt 0.920769 0.111144
vt 0.867755 0.111125
vt 0.411891 0.146379
vt 0.421340 0.071897
vt 0.531382 0.072396
vt 0.484071 0.153440
vt 0.111947 0.272824
vt 0.078648 0.271182
vt 0.347858 0.144608
vt 0.351270 0.070200
vt 0.283499 0.152657
vt 0.343103 0.276164
vt 0.412479 0.281359
vt 0.451564 0.282142
vt 0.525463 0.160863
vt 0.972084 0.111162
vt 0.972071 0.177871
vt 0.262493 0.076326
vn -0.160705 -0.154251 0.974875
vn 0.216860 -0.167360 0.961750
vn 0.443360 -0.136700 0.885858
vn -0.160705 -0.154251 0.974875
vn -0.618914 0.459497 0.637031
vn -0.223987 0.507445 0.832063
vn -0.035610 0.944377 0.326932
vn -0.837110 0.452493 0.307403
vn -0.826069 0.211920 -0.522207
vn -0.450343 0.233703 -0.861727
vn -0.619133 0.167417 -0.767233
vn 0.000000 -1.000000 0.000000
vn 0.000000 -1.000000 0.000000
vn 0.000000 -1.000000 0.000000
vn 0.000000 -1.000000 0.000000
vn -0.996671 -0.058636 0.056653
vn -0.976209 -0.155937 0.150664
vn -0.976209 -0.155937 0.150664
vn -0.997752 -0.048192 0.046562
vn -0.955197 0.000000 -0.295970
vn -0.995889 0.000000 -0.090579
vn -0.998875 0.000000 -0.047427
vn 0.000000 -1.000000 0.000000
vn 0.000000 -1.000000 0.000000
vn 0.000000 -1.000000 0.000000
vn 0.000000 -1.000000 0.000000
vn 0.957265 -0.184854 -0.222426
vn 0.951600 -0.197834 -0.235199
vn 0.858576 -0.345182 -0.379075
vn 0.858576 -0.345182 -0.379075
vn -0.917699 0.333805 -0.215413
vn 0.023205 0.966531 -0.255497
vn 0.173111 0.846502 -0.503455
vn -0.878847 0.267553 -0.395024
vn -0.995889 0.000000 -0.090579
vn -0.996671 -0.058636 0.056653
vn -0.997752 -0.048192 0.046562
vn -0.998875 0.000000 -0.047427
vn 0.000000 -1.000000 0.000000
vn 0.000000 -1.000000 0.000000
vn 0.000000 -1.000000 0.000000
vn 0.000000 -1.000000 0.000000
vn 0.999240 0.038968 0.000000
vn 0.999240 0.038968 0.000000
vn 0.951600 -0.197834 -0.235199
vn 0.957265 -0.184854 -0.222426
vn -0.837110 0.452493 0.307403
vn -0.035610 0.944377 0.326932
vn 0.023205 0.966531 -0.255497
vn -0.917699 0.333805 -0.215413
vn -0.826069 0.211920 -0.522207
vn -0.386728 0.328640 -0.861648
vn -0.450343 0.233703 -0.861727
vn -0.223987 0.507445 0.832063
vn 0.910944 0.364747 0.192718
vn -0.035610 0.944377 0.326932
vn 0.023205 0.966531 -0.255497
vn -0.035610 0.944377 0.326932
vn 0.910944 0.364747 0.192718
vn 0.931371 0.364071 0.000000
vn 0.173111 0.846502 -0.503455
vn 0.023205 0.966531 -0.255497
vn 0.931371 0.364071 0.000000
vn 0.931371 0.364071 0.000000
vn -0.450343 0.233703 -0.861727
vn -0.386728 0.328640 -0.861648
vn 0.110174 0.263300 -0.958402
vn -0.619133 0.167417 -0.767233
vn -0.450343 0.233703 -0.861727
vn 0.110174 0.263300 -0.958402
vn 0.000000 -1.000000 0.000000
vn 0.000000 -1.000000 0.000000
vn 0.000000 -1.000000 0.000000
vn 0.000000 -1.000000 0.000000
vn 0.000000 -1.000000 0.000000
vn 0.000000 -1.000000 0.000000
vn 0.000000 -1.000000 0.000000
vn 0.000000 -1.000000 0.000000
vn 0.000000 -1.000000 0.000000
vn 0.000000 -1.000000 0.000000
vn 0.443360 -0.136700 0.885858
vn 0.216860 -0.167360 0.961750
vn 0.631907 -0.094833 0.769221
vn 0.443360 -0.136700 0.885858
vn 0.631907 -0.094833 0.769221
vn 0.688597 -0.026242 0.724669
s off
g rock:pCube5
usemtl initialShadingGroup
f 1/1/1 21/2/2 14/3/3 3/4/4
f 3/4/5 14/3/6 15/5/7 12/6/8
f 5/7/9 18/8/10 7/9/11
f 13/10/12 20/11/13 21/12/14 1/13/15
f 13/14/16 1/1/17 3/4/18 12/6/19
f 5/7/20 9/15/21 8/16/22
f 5/17/23 7/18/24 19/19/25 9/20/26
f 11/21/27 10/22/28 7/23/29 6/24/30
f 8/16/31 16/25/32 17/26/33 5/7/34
f 9/15/35 13/14/36 12/6/37 8/16/38
f 9/20/39 19/19/40 20/11/41 13/10/42
f 4/27/43 2/28/44 10/22/45 11/21/46
f 12/6/47 15/5/48 16/25/49 8/16/50
f 5/7/51 17/26/52 18/8/53
f 14/29/54 4/27/55 15/30/56
f 16/31/57 15/30/58 4/27/59 11/21/60
f 17/32/61 16/31/62 11/21/63 6/24/64
f 18/33/65 17/32/66 6/24/67
f 7/23/68 18/33/69 6/24/70
f 19/19/71 7/18/72 10/34/73
f 20/11/74 19/19/75 10/34/76 2/35/77
f 21/12/78 20/11/79 2/35/80
f 14/29/81 21/36/82 2/28/83
f 14/29/84 2/28/85 4/27/86
g default
v -0.406622 0.460238 0.369356
v -0.098776 0.448056 0.522859
v -0.088441 0.744026 0.525623
v -0.396288 0.756209 0.372120
v -0.250524 0.457713 0.056104
v -0.240071 0.757076 0.058899
v -0.412737 0.285132 0.367720
v -0.104890 0.272949 0.521224
v 0.057323 0.445531 0.209607
v 0.067776 0.744893 0.212402
v -0.082275 0.920608 0.527272
v -0.390122 0.932791 0.373769
v -0.263677 0.107515 0.054689
v -0.228783 1.106862 0.064021
v 0.044170 0.095332 0.208192
v 0.079064 1.094680 0.217524
v -0.129201 0.105339 -0.215172
v -0.116725 0.455549 -0.212398
v -0.094307 1.104687 -0.205839
v -0.106272 0.754911 -0.209603
v 0.178646 0.093157 -0.061669
v 0.191106 0.442924 -0.058899
v 0.201327 0.742733 -0.055603
v 0.213540 1.092504 -0.052336
v 0.033259 0.277917 -0.527286
v 0.039373 0.453024 -0.525650
v 0.049708 0.748994 -0.522886
v 0.055874 0.925576 -0.521237
v 0.341106 0.265734 -0.373782
v 0.347220 0.440841 -0.372147
v 0.357555 0.736811 -0.369383
v 0.363720 0.913393 -0.367734
v -0.016134 1.103422 -0.362714
v 0.291713 1.091240 -0.209211
v 0.256819 0.091892 -0.218543
v -0.051028 0.104075 -0.372046
v -0.341264 0.108770 0.210387
v -0.329036 0.458983 0.213657
v -0.318701 0.754954 0.216421
v -0.306370 1.108117 0.219719
v 0.001477 1.095935 0.373223
v -0.010854 0.742771 0.369925
v -0.021189 0.446801 0.367161
v -0.033417 0.096587 0.363890
v -0.234948 0.930280 0.062372
v -0.312535 0.931535 0.218070
v -0.004688 0.919353 0.371574
v 0.072899 0.918098 0.215875
v -0.257563 0.282622 0.056324
v -0.335150 0.283877 0.212022
v -0.027303 0.271694 0.365525
v 0.050284 0.270439 0.209827
vt 0.160697 0.944553
vt 0.044494 0.944553
vt 0.044494 0.844571
vt 0.160697 0.844571
vt 0.698012 0.813463
vt 0.698626 0.872890
vt 0.598645 0.873927
vt 0.596885 0.814514
vt 0.181769 0.912314
vt 0.297972 0.912314
vt 0.297972 0.971467
vt 0.181769 0.971467
vt 0.589722 0.510417
vt 0.590337 0.450994
vt 0.691468 0.452045
vt 0.689705 0.511457
vt 0.757171 0.813547
vt 0.757779 0.872271
vt 0.538391 0.815814
vt 0.538993 0.874541
vt 0.479343 0.875146
vt 0.478742 0.816417
vt 0.181769 0.770230
vt 0.297972 0.770229
vt 0.297972 0.828959
vt 0.181769 0.828959
vt 0.530566 0.509798
vt 0.531179 0.451070
vt 0.749360 0.512073
vt 0.749965 0.453346
vt 0.809613 0.453952
vt 0.809010 0.512680
vt 0.160697 0.701209
vt 0.044494 0.701209
vt 0.044494 0.642480
vt 0.160697 0.642480
vt 0.815277 0.711141
vt 0.816323 0.812933
vt 0.696974 0.712194
vt 0.477699 0.714631
vt 0.595851 0.713246
vt 0.181769 0.668439
vt 0.297972 0.668439
vt 0.472027 0.450445
vt 0.473093 0.348657
vt 0.591245 0.349723
vt 0.692511 0.350964
vt 0.810661 0.352168
vt 0.044494 0.540689
vt 0.160697 0.540689
vt 0.754877 0.593422
vt 0.814655 0.651965
vt 0.695736 0.594047
vt 0.595782 0.595084
vt 0.477095 0.655461
vt 0.536145 0.595688
vt 0.181769 0.525597
vt 0.297972 0.525597
vt 0.297972 0.609267
vt 0.181769 0.609267
vt 0.473717 0.289485
vt 0.533497 0.230946
vt 0.592634 0.231574
vt 0.692588 0.232614
vt 0.752225 0.233221
vt 0.811271 0.292998
vt 0.160697 0.481517
vt 0.044494 0.481517
vt 0.044494 0.397494
vt 0.160697 0.397494
vt 0.044494 0.337843
vt 0.160697 0.337843
vt 0.181769 0.366461
vt 0.297972 0.366461
vt 0.297972 0.466444
vt 0.181769 0.466444
vt 0.331272 0.955273
vt 0.331272 0.854144
vt 0.447476 0.854136
vt 0.447476 0.955273
vt 0.331272 0.651738
vt 0.331272 0.550461
vt 0.447476 0.550461
vt 0.447476 0.651748
vt 0.331272 0.752866
vt 0.447476 0.753036
vt 0.758394 0.930998
vt 0.699240 0.931616
vt 0.599254 0.932652
vt 0.539595 0.933268
vt 0.160697 0.784918
vt 0.044494 0.784919
vt 0.748753 0.570799
vt 0.589109 0.569143
vt 0.689095 0.570183
vt 0.529948 0.568522
vt 0.816931 0.871654
vt 0.471414 0.509170
vn -0.445996 0.007215 0.895006
vn -0.445996 0.007215 0.895006
vn -0.445996 0.007215 0.895006
vn -0.445996 0.007215 0.895006
vn -0.571958 0.027627 -0.819817
vn -0.894355 0.035393 -0.445956
vn -0.894355 0.035393 -0.445956
vn -0.571173 0.027605 -0.820365
vn -0.445996 0.007215 0.895006
vn -0.445996 0.007215 0.895006
vn -0.445996 0.007215 0.895006
vn -0.445996 0.007215 0.895006
vn 0.894355 -0.035393 0.445956
vn 0.998719 -0.034527 -0.036984
vn 0.998689 -0.034519 -0.037791
vn 0.894355 -0.035393 0.445956
vn -0.894355 0.035393 -0.445956
vn -0.894355 0.035393 -0.445956
vn -0.894355 0.035393 -0.445956
vn -0.571958 0.027627 -0.819817
vn -0.894355 0.035393 -0.445956
vn -0.894355 0.035393 -0.445956
vn -0.894355 0.035393 -0.445956
vn -0.894355 0.035393 -0.445956
vn -0.034895 -0.999347 -0.009333
vn -0.034895 -0.999347 -0.009333
vn -0.231772 -0.889304 0.394234
vn -0.231772 -0.889304 0.394234
vn 0.894355 -0.035393 0.445956
vn 0.894355 -0.035393 0.445956
vn 0.998719 -0.034527 -0.036984
vn 0.894355 -0.035393 0.445956
vn 0.894355 -0.035393 0.445956
vn 0.894355 -0.035393 0.445956
vn 0.894355 -0.035393 0.445956
vn 0.894355 -0.035393 0.445956
vn -0.170839 0.894292 0.413588
vn -0.170839 0.894292 0.413588
vn 0.034895 0.999347 0.009333
vn 0.034895 0.999347 0.009333
vn -0.894355 0.035393 -0.445956
vn -0.894355 0.035393 -0.445956
vn -0.894355 0.035393 -0.445956
vn -0.571958 0.027627 -0.819817
vn -0.894355 0.035393 -0.445956
vn -0.571173 0.027605 -0.820365
vn -0.894355 0.035393 -0.445956
vn -0.894355 0.035393 -0.445956
vn -0.894355 0.035393 -0.445956
vn -0.894355 0.035393 -0.445956
vn -0.034895 -0.999347 -0.009333
vn -0.034895 -0.999347 -0.009333
vn -0.034895 -0.999347 -0.009333
vn -0.034895 -0.999347 -0.009333
vn 0.998719 -0.034527 -0.036984
vn 0.894355 -0.035393 0.445956
vn 0.894355 -0.035393 0.445956
vn 0.894355 -0.035393 0.445956
vn 0.894355 -0.035393 0.445956
vn 0.894355 -0.035393 0.445956
vn 0.894355 -0.035393 0.445956
vn 0.998689 -0.034519 -0.037791
vn 0.894355 -0.035393 0.445956
vn 0.894355 -0.035393 0.445956
vn 0.034895 0.999347 0.009333
vn 0.034895 0.999347 0.009333
vn 0.034895 0.999347 0.009333
vn 0.034895 0.999347 0.009333
vn -0.894355 0.035393 -0.445956
vn -0.894355 0.035393 -0.445956
vn -0.894355 0.035393 -0.445956
vn -0.894355 0.035393 -0.445956
vn -0.894355 0.035393 -0.445956
vn -0.894355 0.035393 -0.445956
vn -0.894355 0.035393 -0.445956
vn -0.894355 0.035393 -0.445956
vn -0.894355 0.035393 -0.445956
vn -0.894355 0.035393 -0.445956
vn 0.290638 -0.711860 -0.639363
vn 0.290638 -0.711860 -0.639363
vn 0.168191 -0.897127 -0.408503
vn 0.168191 -0.897127 -0.408503
vn 0.894355 -0.035393 0.445956
vn 0.894355 -0.035393 0.445956
vn 0.894355 -0.035393 0.445956
vn 0.894355 -0.035393 0.445956
vn 0.894355 -0.035393 0.445956
vn 0.894355 -0.035393 0.445956
vn 0.894355 -0.035393 0.445956
vn 0.894355 -0.035393 0.445956
vn 0.894355 -0.035393 0.445956
vn 0.894355 -0.035393 0.445956
vn 0.231905 0.889146 -0.394512
vn 0.231905 0.889146 -0.394512
vn 0.341210 0.698667 -0.628840
vn 0.341210 0.698667 -0.628840
vn -0.894355 0.035393 -0.445956
vn -0.894355 0.035393 -0.445956
vn -0.894355 0.035393 -0.445956
vn -0.894355 0.035393 -0.445956
vn 0.445996 -0.007215 -0.895006
vn 0.445996 -0.007215 -0.895006
vn 0.445996 -0.007215 -0.895006
vn 0.445996 -0.007215 -0.895006
vn 0.894355 -0.035393 0.445956
vn 0.894355 -0.035393 0.445956
vn 0.894355 -0.035393 0.445956
vn 0.894355 -0.035393 0.445956
vn 0.445996 -0.007215 -0.895006
vn 0.445996 -0.007215 -0.895006
vn 0.445996 -0.007215 -0.895006
vn 0.445996 -0.007215 -0.895006
vn -0.571958 0.027627 -0.819817
vn -0.571173 0.027605 -0.820365
vn 0.998689 -0.034519 -0.037791
vn 0.998719 -0.034527 -0.036984
vn 0.035797 0.999319 0.008960
vn 0.035797 0.999319 0.008960
vn 0.035797 0.999319 0.008960
vn 0.035797 0.999319 0.008960
vn -0.034895 -0.999347 -0.009333
vn -0.034895 -0.999347 -0.009333
vn -0.034895 -0.999348 -0.009333
vn -0.034895 -0.999347 -0.009333
vn -0.446749 0.006318 0.894637
vn -0.446749 0.006318 0.894637
vn -0.446749 0.006318 0.894637
vn -0.446749 0.006318 0.894637
vn 0.034895 0.999347 0.009333
vn 0.034895 0.999347 0.009333
vn 0.231905 0.889146 -0.394512
vn 0.231905 0.889146 -0.394512
vn 0.445996 -0.007215 -0.895006
vn 0.445996 -0.007215 -0.895006
vn 0.445996 -0.007215 -0.895006
vn 0.445996 -0.007215 -0.895006
vn 0.168191 -0.897127 -0.408503
vn 0.168191 -0.897127 -0.408503
vn -0.034895 -0.999347 -0.009333
vn -0.034895 -0.999347 -0.009333
vn -0.894355 0.035393 -0.445956
vn -0.894355 0.035393 -0.445956
vn -0.894355 0.035393 -0.445956
vn -0.894355 0.035393 -0.445956
vn -0.894355 0.035393 -0.445956
vn -0.894355 0.035393 -0.445956
vn -0.894355 0.035393 -0.445956
vn -0.894355 0.035393 -0.445956
vn -0.894355 0.035393 -0.445956
vn -0.894355 0.035393 -0.445956
vn -0.894355 0.035393 -0.445956
vn -0.293335 0.706256 0.644327
vn -0.293335 0.706256 0.644327
vn -0.170839 0.894292 0.413588
vn -0.170839 0.894292 0.413588
vn 0.894355 -0.035393 0.445956
vn 0.894355 -0.035393 0.445956
vn 0.894355 -0.035393 0.445956
vn 0.894355 -0.035393 0.445956
vn 0.894355 -0.035393 0.445956
vn 0.894355 -0.035393 0.445956
vn 0.894355 -0.035393 0.445956
vn 0.894355 -0.035393 0.445956
vn 0.894355 -0.035393 0.445956
vn 0.894355 -0.035393 0.445956
vn 0.894355 -0.035393 0.445956
vn -0.231772 -0.889304 0.394234
vn -0.231772 -0.889304 0.394234
vn -0.341086 -0.698976 0.628565
vn -0.341086 -0.698976 0.628565
vn -0.571173 0.027605 -0.820365
vn -0.894355 0.035393 -0.445956
vn -0.894355 0.035393 -0.445956
vn -0.894355 0.035393 -0.445956
vn -0.894355 0.035393 -0.445956
vn -0.894355 0.035393 -0.445956
vn -0.894355 0.035393 -0.445956
vn -0.894355 0.035393 -0.445956
vn -0.445996 0.007215 0.895006
vn -0.445996 0.007215 0.895006
vn -0.445996 0.007215 0.895006
vn -0.445996 0.007215 0.895006
vn 0.894355 -0.035393 0.445956
vn 0.894355 -0.035393 0.445956
vn 0.894355 -0.035393 0.445956
vn 0.894355 -0.035393 0.445956
vn 0.894355 -0.035393 0.445956
vn 0.998689 -0.034519 -0.037791
vn 0.894355 -0.035393 0.445956
vn 0.894355 -0.035393 0.445956
vn -0.894355 0.035393 -0.445956
vn -0.894355 0.035393 -0.445956
vn -0.894355 0.035393 -0.445956
vn -0.894355 0.035393 -0.445956
vn -0.894355 0.035393 -0.445956
vn -0.894355 0.035393 -0.445956
vn -0.894355 0.035393 -0.445956
vn 0.894355 -0.035393 0.445956
vn 0.894355 -0.035393 0.445956
vn 0.894355 -0.035393 0.445956
vn 0.894355 -0.035393 0.445956
vn 0.894355 -0.035393 0.445956
vn 0.894355 -0.035393 0.445956
vn 0.894355 -0.035393 0.445956
s off
g rock:pCube3
usemtl initialShadingGroup
f 22/37/87 23/38/88 24/39/89 25/40/90
f 26/41/91 59/42/92 60/43/93 27/44/94
f 28/45/95 29/46/96 23/47/97 22/48/98
f 64/49/99 30/50/100 31/51/101 63/52/102
f 70/53/103 71/54/104 59/42/105 26/41/106
f 66/55/107 67/56/108 61/57/109 35/58/110
f 34/59/111 36/60/112 65/61/113 58/62/114
f 72/63/115 73/64/116 30/50/117 64/49/118
f 68/65/119 69/66/120 37/67/121 62/68/122
f 61/69/123 62/70/124 37/71/125 35/72/126
f 38/73/127 34/74/128 70/53/129 26/41/130 39/75/131
f 27/44/132 66/55/133 35/58/134 40/76/135 41/77/136
f 38/78/137 42/79/138 36/60/139 34/59/140
f 30/50/141 73/64/142 36/80/143 42/81/144 43/82/145
f 37/67/146 69/66/147 31/51/148 44/83/149 45/84/150
f 35/72/151 37/71/152 45/85/153 40/86/154
f 46/87/155 57/88/156 38/73/157 39/75/158 47/89/159
f 48/90/160 41/77/161 40/76/162 54/91/163 49/92/164
f 46/93/165 50/94/166 56/95/167 57/96/168
f 43/82/169 42/81/170 56/97/171 50/98/172 51/99/173
f 45/84/174 44/83/175 52/100/176 53/101/177 55/102/178
f 54/103/179 55/104/180 53/105/181 49/106/182
f 41/77/183 48/90/184 47/89/185 39/75/186
f 49/106/187 53/105/188 52/107/189 48/108/190
f 43/82/191 51/99/192 52/100/193 44/83/194
f 48/109/195 52/110/196 51/111/197 47/112/198
f 26/113/199 27/114/200 31/115/201 30/116/202
f 39/117/203 26/118/204 30/119/205 43/120/206
f 27/114/207 41/121/208 44/122/209 31/115/210
f 41/121/211 39/117/212 43/120/213 44/122/214
f 40/86/215 45/85/216 55/104/217 54/103/218
f 47/112/219 51/111/220 50/94/221 46/93/222
f 57/96/223 56/95/224 42/79/225 38/78/226
f 71/54/227 28/123/228 22/124/229 59/42/230
f 60/43/231 59/42/232 22/124/233 25/125/234
f 61/57/235 67/56/236 33/126/237
f 33/127/238 32/128/239 62/70/240 61/69/241
f 32/129/242 68/65/243 62/68/244
f 23/130/245 64/49/246 63/52/247 24/131/248
f 29/132/249 72/63/250 64/49/251 23/130/252
f 58/62/253 65/61/254 29/46/255 28/45/256
f 27/44/257 60/43/258 67/56/259 66/55/260
f 33/126/261 67/56/262 60/43/263 25/125/264
f 25/40/265 24/39/266 32/128/267 33/127/268
f 24/131/269 63/52/270 68/65/271 32/129/272
f 63/52/273 31/51/274 69/66/275 68/65/276
f 34/74/277 58/133/278 71/54/279 70/53/280
f 58/133/281 28/123/282 71/54/283
f 29/132/284 65/134/285 72/63/286
f 65/134/287 36/80/288 73/64/289 72/63/290
g default
v -0.397016 0.112156 -0.417363
v -0.231116 0.112156 -0.626308
v -0.376138 0.203328 -0.443658
v -0.248367 0.203328 -0.604581
v -0.674275 0.203328 -0.680377
v -0.546504 0.203328 -0.841299
v -0.695153 0.112156 -0.654082
v -0.529253 0.112156 -0.863027
v -0.607530 0.252516 -0.764440
v -0.607530 0.112156 -0.764440
v -0.309393 0.112156 -0.527721
v -0.309393 0.252516 -0.527721
v -0.607530 0.203328 -0.764440
v -0.309393 0.203328 -0.527721
vt 0.761931 0.227395
vt 0.798165 0.227836
vt 0.797965 0.244442
vt 0.947091 0.650397
vt 0.907232 0.649786
vt 0.909207 0.521283
vt 0.949057 0.521895
vt 0.764278 0.037318
vt 0.800724 0.021171
vt 0.800512 0.037774
vt 0.752558 0.067958
vt 0.800125 0.068550
vt 0.798542 0.197059
vt 0.750974 0.196473
vt 0.833641 0.038192
vt 0.842618 0.069079
vt 0.841035 0.197581
vt 0.831294 0.228237
vt 0.870177 0.649215
vt 0.872150 0.520714
vt 0.981849 0.522395
vt 0.979892 0.650898
vt 0.838011 0.648724
vt 0.839978 0.520222
vn 0.783160 0.000000 0.621820
vn 0.783160 0.000000 0.621820
vn 0.783161 0.000000 0.621820
vn -0.259049 0.909092 0.326261
vn 0.000000 1.000000 0.000000
vn 0.000000 1.000000 0.000000
vn -0.259049 0.909092 0.326261
vn -0.783158 0.000000 -0.621822
vn -0.783158 0.000000 -0.621822
vn -0.783158 0.000000 -0.621822
vn 0.000000 -1.000000 0.000000
vn 0.000000 -1.000000 0.000000
vn 0.000000 -1.000000 0.000000
vn 0.000000 -1.000000 0.000000
vn -0.783158 0.000000 -0.621822
vn -0.783158 0.000000 -0.621822
vn -0.783158 0.000000 -0.621822
vn 0.000000 -1.000000 0.000000
vn 0.000000 -1.000000 0.000000
vn 0.000000 -1.000000 0.000000
vn 0.000000 -1.000000 0.000000
vn 0.783158 0.000000 0.621822
vn 0.783158 0.000000 0.621822
vn 0.783158 0.000000 0.621822
vn 0.000000 1.000000 0.000000
vn 0.000000 1.000000 0.000000
vn 0.278624 0.893995 -0.350915
vn 0.278624 0.893995 -0.350915
vn -0.783158 0.000000 -0.621822
vn -0.783158 0.000000 -0.621822
vn -0.783158 0.000000 -0.621822
vn -0.783159 0.000000 -0.621822
vn -0.783158 0.000000 -0.621822
vn -0.783158 0.000000 -0.621822
vn -0.783159 0.000000 -0.621822
vn -0.783158 0.000000 -0.621822
vn -0.583512 0.345575 0.734909
vn -0.583512 0.345575 0.734909
vn -0.583512 0.345575 0.734909
vn -0.583512 0.345575 0.734909
vn 0.783159 0.000000 0.621822
vn 0.783158 0.000000 0.621822
vn 0.783158 0.000000 0.621822
vn 0.783158 0.000000 0.621822
vn 0.783158 0.000000 0.621822
vn 0.783158 0.000000 0.621822
vn 0.783158 0.000000 0.621822
vn 0.783158 0.000000 0.621822
vn 0.594890 0.291116 -0.749238
vn 0.594890 0.291116 -0.749238
vn 0.594890 0.291116 -0.749238
vn 0.594890 0.291116 -0.749238
s off
g rock:pCube4
usemtl initialShadingGroup
f 76/135/291 87/136/292 85/137/293
f 76/138/294 85/139/295 82/140/296 78/141/297
f 78/142/298 82/143/299 86/144/300
f 80/145/301 83/146/302 84/147/303 74/148/304
f 82/143/305 79/149/306 86/144/307
f 84/147/308 83/146/309 81/150/310 75/151/311
f 85/137/312 87/136/313 77/152/314
f 82/140/315 85/139/316 77/153/317 79/154/318
f 86/144/319 79/149/320 81/150/321 83/146/322
f 78/142/323 86/144/324 83/146/325 80/145/326
f 80/155/327 74/156/328 76/138/329 78/141/330
f 74/148/331 84/147/332 87/136/333 76/135/334
f 77/152/335 87/136/336 84/147/337 75/151/338
f 75/157/339 81/158/340 79/154/341 77/153/342
