# This file uses centimeters as units for non-parametric coordinates.

mtllib heart.mtl
g default
v -0.065395 0.006810 0.082527
v 0.086109 0.006810 0.082527
v -0.400024 0.876790 0.101245
v 0.400024 0.876790 0.101245
v -0.400024 0.876790 -0.101245
v 0.400024 0.876790 -0.101245
v -0.065395 0.006810 -0.082527
v 0.086109 0.006810 -0.082527
v 0.323632 0.214184 -0.104156
v -0.323632 0.214184 -0.104156
v -0.323632 0.214184 0.104156
v 0.323632 0.214184 0.104156
v 0.491439 0.482114 -0.114645
v -0.491439 0.482114 -0.114645
v -0.491439 0.482114 0.114645
v 0.491439 0.482114 0.114645
v 0.500000 0.682429 -0.125625
v -0.500000 0.682429 -0.125625
v -0.500000 0.682429 0.125625
v 0.500000 0.682429 0.125625
v 0.006566 0.006810 -0.086159
v 0.006566 0.006810 0.086159
v 0.005817 0.214184 0.166256
v 0.005817 0.482114 0.221704
v 0.005817 0.682429 0.249177
v 0.005817 0.876790 0.111472
v 0.005817 0.876790 -0.111472
v 0.005817 0.682429 -0.249177
v 0.005817 0.482114 -0.221704
v 0.005817 0.214184 -0.166256
v -0.129845 0.214184 0.133907
v -0.187698 0.482114 0.204956
v -0.245252 0.682429 0.227345
v -0.244267 0.876790 0.204956
v -0.089589 1.006810 0.112458
v -0.089589 1.006810 -0.112458
v -0.244267 0.876790 -0.204956
v -0.245252 0.682429 -0.227345
v -0.187698 0.482114 -0.204956
v -0.129845 0.214184 -0.133907
v 0.150560 0.214184 0.133907
v 0.208413 0.482114 0.204956
v 0.265966 0.682429 0.227345
v 0.264982 0.876790 0.204956
v 0.110304 1.006810 0.112458
v 0.110304 1.006810 -0.112458
v 0.264982 0.876790 -0.204956
v 0.265966 0.682429 -0.227345
v 0.208413 0.482114 -0.204956
v 0.150560 0.214184 -0.133907
v -0.289500 0.986804 -0.106051
v -0.280122 0.981296 0.105576
v 0.294509 0.992297 -0.105329
v 0.297699 0.990866 0.105205
vt 0.595543 0.906853
vt 0.624934 0.846552
vt 0.686119 0.927172
vt 0.311342 0.134369
vt 0.309691 0.232430
vt 0.220818 0.237748
vt 0.218298 0.133666
vt 0.367529 0.837186
vt 0.399387 0.899479
vt 0.304205 0.916215
vt 0.403361 0.527847
vt 0.312627 0.530193
vt 0.282525 0.431277
vt 0.877177 0.146826
vt 0.876942 0.223233
vt 0.723595 0.232773
vt 0.723887 0.136342
vt 0.719372 0.442879
vt 0.686962 0.541064
vt 0.596303 0.536597
vt 0.162983 0.382778
vt 0.163018 0.306371
vt 0.308981 0.296430
vt 0.308948 0.392862
vt 0.483536 0.652180
vt 0.337383 0.658592
vt 0.577242 0.237191
vt 0.577538 0.131050
vt 0.659207 0.668834
vt 0.513236 0.659040
vt 0.455324 0.291609
vt 0.455304 0.397752
vt 0.489762 0.747218
vt 0.362986 0.751129
vt 0.484435 0.242034
vt 0.484708 0.125725
vt 0.631458 0.760715
vt 0.504801 0.753951
vt 0.548137 0.286540
vt 0.548125 0.402847
vt 0.452256 0.844744
vt 0.383288 0.230526
vt 0.383489 0.136803
vt 0.540170 0.852372
vt 0.649311 0.297829
vt 0.649309 0.391567
vt 0.126195 0.304675
vt 0.126162 0.384444
vt 0.751248 0.546210
vt 0.753878 0.443926
vt 0.791879 0.444538
vt 0.819843 0.544077
vt 0.748360 0.671921
vt 0.841765 0.672952
vt 0.746248 0.765265
vt 0.865323 0.765864
vt 0.743890 0.874597
vt 0.867992 0.851695
vt 0.803148 0.929425
vt 0.884470 0.292989
vt 0.884544 0.396196
vt 0.807324 0.396705
vt 0.807257 0.292586
vt 0.247872 0.862274
vt 0.187351 0.915713
vt 0.124349 0.836475
vt 0.248114 0.752947
vt 0.129044 0.750736
vt 0.248187 0.659581
vt 0.154779 0.658409
vt 0.248241 0.533832
vt 0.179716 0.530087
vt 0.248007 0.431512
vt 0.210006 0.431229
vt 0.910495 0.145247
vt 0.910250 0.225015
vt 0.146176 0.239105
vt 0.143672 0.135931
vt 0.901177 0.543344
vt 0.978856 0.669346
vt 0.983198 0.764628
vt 0.944379 0.861904
vt 0.893253 0.916944
vt 0.721729 0.295939
vt 0.720254 0.393400
vt 0.098978 0.901845
vt 0.047759 0.844897
vt 0.011228 0.746737
vt 0.017810 0.651585
vt 0.098425 0.527445
vn -0.275376 0.611172 0.742049
vn -0.129814 0.357063 0.925016
vn 0.225129 0.372631 0.900257
vn -0.377608 0.925741 0.020376
vn -0.367222 0.929914 0.020182
vn 0.358271 0.933571 0.009342
vn 0.357586 0.933833 0.009353
vn -0.127934 0.354994 -0.926073
vn -0.267805 0.580920 -0.768643
vn 0.222986 0.374892 -0.899852
vn -0.220341 -0.243333 -0.944584
vn -0.180017 -0.257205 -0.949442
vn -0.158015 -0.311801 -0.936916
vn -0.626138 -0.779713 0.000000
vn -0.626138 -0.779713 0.000000
vn -0.756999 -0.653416 0.000000
vn -0.756999 -0.653416 0.000000
vn -0.158015 -0.311801 0.936916
vn -0.180017 -0.257205 0.949442
vn -0.220341 -0.243333 0.944584
vn 0.657681 -0.753297 0.000000
vn 0.657681 -0.753297 0.000000
vn 0.771497 -0.636233 0.000000
vn 0.771497 -0.636233 0.000000
vn -0.281691 -0.179077 -0.942646
vn -0.200978 -0.191071 -0.960781
vn -0.180017 -0.257205 -0.949442
vn -0.220341 -0.243333 -0.944584
vn -0.756999 -0.653416 0.000000
vn -0.756999 -0.653416 0.000000
vn -0.942334 -0.334675 0.000000
vn -0.942334 -0.334675 0.000000
vn -0.220341 -0.243333 0.944584
vn -0.180017 -0.257205 0.949442
vn -0.200978 -0.191071 0.960781
vn -0.281691 -0.179077 0.942646
vn 0.771497 -0.636233 0.000000
vn 0.771497 -0.636233 0.000000
vn 0.942334 -0.334675 0.000000
vn 0.942334 -0.334675 0.000000
vn -0.370512 -0.002584 -0.928824
vn -0.195031 0.082342 -0.977334
vn -0.200978 -0.191071 -0.960781
vn -0.281691 -0.179077 -0.942646
vn -0.942334 -0.334675 0.000000
vn -0.942334 -0.334675 0.000000
vn -0.976977 0.213346 0.000000
vn -0.976977 0.213346 0.000000
vn -0.281691 -0.179077 0.942646
vn -0.200978 -0.191071 0.960781
vn -0.195031 0.082342 0.977334
vn -0.370512 -0.002583 0.928824
vn 0.942334 -0.334675 0.000000
vn 0.942334 -0.334675 0.000000
vn 0.976977 0.213346 0.000000
vn 0.976977 0.213346 0.000000
vn -0.444487 0.246067 -0.861326
vn -0.127934 0.354994 -0.926073
vn -0.195031 0.082342 -0.977334
vn -0.370512 -0.002584 -0.928824
vn -0.976977 0.213346 0.000000
vn -0.976977 0.213346 0.000000
vn -0.889252 0.457417 0.000000
vn -0.889252 0.457417 0.000000
vn -0.370512 -0.002583 0.928824
vn -0.195031 0.082342 0.977334
vn -0.129814 0.357063 0.925016
vn -0.443032 0.250416 0.860822
vn 0.976977 0.213346 0.000000
vn 0.976977 0.213346 0.000000
vn 0.889252 0.457417 0.000000
vn 0.889252 0.457417 0.000000
vn 0.000000 -1.000000 0.000000
vn 0.000000 -1.000000 0.000000
vn 0.000000 -1.000000 0.000000
vn 0.000000 -1.000000 0.000000
vn -0.000110 -0.269860 0.962900
vn 0.000248 -0.324356 0.945935
vn 0.152447 -0.313006 0.937437
vn 0.183871 -0.260648 0.947763
vn 0.000011 -0.190074 0.981770
vn -0.000110 -0.269860 0.962900
vn 0.183871 -0.260648 0.947763
vn 0.205822 -0.193505 0.959267
vn -0.000036 0.144492 0.989506
vn 0.000011 -0.190074 0.981770
vn 0.205822 -0.193505 0.959267
vn 0.200160 0.087279 0.975868
vn 0.001197 0.359727 0.933057
vn -0.000036 0.144492 0.989506
vn 0.200160 0.087279 0.975868
vn 0.133214 0.360614 0.923153
vn 0.001197 0.359727 0.933057
vn 0.133214 0.360614 0.923153
vn -0.222534 0.375368 0.899765
vn 0.000084 1.000000 0.000000
vn 0.000084 1.000000 0.000000
vn -0.379802 0.925067 0.001562
vn -0.379805 0.925065 0.001562
vn 0.001197 0.359727 -0.933057
vn -0.224071 0.373747 -0.900059
vn 0.133838 0.360296 -0.923187
vn -0.000036 0.144491 -0.989506
vn 0.001197 0.359727 -0.933057
vn 0.133838 0.360296 -0.923187
vn 0.200160 0.087279 -0.975868
vn 0.000011 -0.190074 -0.981770
vn -0.000036 0.144491 -0.989506
vn 0.200160 0.087279 -0.975868
vn 0.205822 -0.193505 -0.959267
vn -0.000110 -0.269860 -0.962900
vn 0.000011 -0.190074 -0.981770
vn 0.205822 -0.193505 -0.959267
vn 0.183871 -0.260648 -0.947763
vn 0.000248 -0.324356 -0.945935
vn -0.000110 -0.269860 -0.962900
vn 0.183871 -0.260648 -0.947763
vn 0.152447 -0.313006 -0.937437
vn 0.000000 -1.000000 0.000000
vn 0.000000 -1.000000 0.000000
vn 0.000000 -1.000000 0.000000
vn 0.000000 -1.000000 0.000000
vn -0.180017 -0.257205 0.949442
vn -0.158015 -0.311801 0.936916
vn 0.000248 -0.324356 0.945935
vn -0.000110 -0.269860 0.962900
vn -0.200978 -0.191071 0.960781
vn -0.180017 -0.257205 0.949442
vn -0.000110 -0.269860 0.962900
vn 0.000011 -0.190074 0.981770
vn -0.195031 0.082342 0.977334
vn -0.200978 -0.191071 0.960781
vn 0.000011 -0.190074 0.981770
vn -0.000036 0.144492 0.989506
vn -0.129814 0.357063 0.925016
vn -0.195031 0.082342 0.977334
vn -0.000036 0.144492 0.989506
vn 0.001197 0.359727 0.933057
vn 0.225129 0.372631 0.900257
vn -0.129814 0.357063 0.925016
vn 0.001197 0.359727 0.933057
vn 0.357586 0.933833 0.009353
vn 0.358271 0.933571 0.009342
vn 0.000084 1.000000 0.000000
vn 0.000084 1.000000 0.000000
vn -0.127934 0.354994 -0.926073
vn 0.222986 0.374892 -0.899852
vn 0.001197 0.359727 -0.933057
vn -0.195031 0.082342 -0.977334
vn -0.127934 0.354994 -0.926073
vn 0.001197 0.359727 -0.933057
vn -0.000036 0.144491 -0.989506
vn -0.200978 -0.191071 -0.960781
vn -0.195031 0.082342 -0.977334
vn -0.000036 0.144491 -0.989506
vn 0.000011 -0.190074 -0.981770
vn -0.180017 -0.257205 -0.949442
vn -0.200978 -0.191071 -0.960781
vn 0.000011 -0.190074 -0.981770
vn -0.000110 -0.269860 -0.962900
vn -0.158015 -0.311801 -0.936916
vn -0.180017 -0.257205 -0.949442
vn -0.000110 -0.269860 -0.962900
vn 0.000248 -0.324356 -0.945935
vn 0.183871 -0.260648 0.947763
vn 0.152447 -0.313006 0.937437
vn 0.238865 -0.250176 0.938273
vn 0.205822 -0.193505 0.959267
vn 0.183871 -0.260648 0.947763
vn 0.238865 -0.250176 0.938273
vn 0.303015 -0.183686 0.935116
vn 0.200160 0.087279 0.975868
vn 0.205822 -0.193505 0.959267
vn 0.303015 -0.183686 0.935116
vn 0.399318 -0.002511 0.916809
vn 0.133214 0.360614 0.923153
vn 0.200160 0.087279 0.975868
vn 0.399318 -0.002511 0.916809
vn 0.484043 0.255132 0.837024
vn 0.269836 0.588825 0.761888
vn 0.133214 0.360614 0.923153
vn 0.484043 0.255132 0.837024
vn 0.389217 0.921146 0.000097
vn 0.396209 0.918160 0.000034
vn 0.741337 0.671124 -0.003399
vn 0.741337 0.671124 -0.003399
vn 0.133838 0.360296 -0.923187
vn 0.266794 0.589450 -0.762476
vn 0.483966 0.256255 -0.836726
vn 0.200160 0.087279 -0.975868
vn 0.133838 0.360296 -0.923187
vn 0.483966 0.256255 -0.836726
vn 0.399318 -0.002511 -0.916809
vn 0.205822 -0.193505 -0.959267
vn 0.200160 0.087279 -0.975868
vn 0.399318 -0.002511 -0.916809
vn 0.303015 -0.183686 -0.935116
vn 0.183871 -0.260648 -0.947763
vn 0.205822 -0.193505 -0.959267
vn 0.303015 -0.183686 -0.935116
vn 0.238865 -0.250176 -0.938273
vn 0.152447 -0.313006 -0.937437
vn 0.183871 -0.260648 -0.947763
vn 0.238865 -0.250176 -0.938273
vn -0.444487 0.246067 -0.861326
vn -0.267805 0.580920 -0.768643
vn -0.127934 0.354994 -0.926073
vn -0.681152 0.731709 0.025156
vn -0.367222 0.929914 0.020182
vn -0.377608 0.925741 0.020376
vn -0.681152 0.731709 0.025156
vn -0.443032 0.250416 0.860822
vn -0.129814 0.357063 0.925016
vn -0.275376 0.611172 0.742049
vn 0.133838 0.360296 -0.923187
vn -0.224071 0.373747 -0.900059
vn 0.266794 0.589450 -0.762476
vn -0.379805 0.925065 0.001562
vn -0.379802 0.925067 0.001562
vn 0.396209 0.918160 0.000034
vn 0.389217 0.921146 0.000097
vn -0.222534 0.375368 0.899765
vn 0.133214 0.360614 0.923153
vn 0.269836 0.588825 0.761888
s off
g heart_corect:pCube1
usemtl initialShadingGroup
f 52/1/1 34/2/2 35/3/3
f 51/4/4 52/5/5 35/6/6 36/7/7
f 37/8/8 51/9/9 36/10/10
f 10/11/11 40/12/12 7/13/13
f 7/14/14 1/15/15 11/16/16 10/17/17
f 1/18/18 31/19/19 11/20/20
f 2/21/21 8/22/22 9/23/23 12/24/24
f 14/25/25 39/26/26 40/12/27 10/11/28
f 10/17/29 11/16/30 15/27/31 14/28/32
f 11/20/33 31/19/34 32/29/35 15/30/36
f 12/24/37 9/23/38 13/31/39 16/32/40
f 18/33/41 38/34/42 39/26/43 14/25/44
f 14/28/45 15/27/46 19/35/47 18/36/48
f 15/30/49 32/29/50 33/37/51 19/38/52
f 16/32/53 13/31/54 17/39/55 20/40/56
f 5/41/57 37/8/58 38/34/59 18/33/60
f 18/36/61 19/35/62 3/42/63 5/43/64
f 19/38/65 33/37/66 34/2/67 3/44/68
f 20/40/69 17/39/70 6/45/71 4/46/72
f 21/47/73 8/22/74 2/21/75 22/48/76
f 23/49/77 22/50/78 2/51/79 41/52/80
f 24/53/81 23/49/82 41/52/83 42/54/84
f 25/55/85 24/53/86 42/54/87 43/56/88
f 26/57/89 25/55/90 43/56/91 44/58/92
f 26/57/93 44/58/94 45/59/95
f 27/60/96 26/61/97 45/62/98 46/63/99
f 27/64/100 46/65/101 47/66/102
f 28/67/103 27/64/104 47/66/105 48/68/106
f 29/69/107 28/67/108 48/68/109 49/70/110
f 30/71/111 29/69/112 49/70/113 50/72/114
f 21/73/115 30/71/116 50/72/117 8/74/118
f 7/14/119 21/75/120 22/76/121 1/15/122
f 31/19/123 1/18/124 22/50/125 23/49/126
f 32/29/127 31/19/128 23/49/129 24/53/130
f 33/37/131 32/29/132 24/53/133 25/55/134
f 34/2/135 33/37/136 25/55/137 26/57/138
f 35/3/139 34/2/140 26/57/141
f 36/7/142 35/6/143 26/77/144 27/78/145
f 37/8/146 36/10/147 27/64/148
f 38/34/149 37/8/150 27/64/151 28/67/152
f 39/26/153 38/34/154 28/67/155 29/69/156
f 40/12/157 39/26/158 29/69/159 30/71/160
f 7/13/161 40/12/162 30/71/163 21/73/164
f 41/52/165 2/51/166 12/79/167
f 42/54/168 41/52/169 12/79/170 16/80/171
f 43/56/172 42/54/173 16/80/174 20/81/175
f 44/58/176 43/56/177 20/81/178 4/82/179
f 54/83/180 44/58/181 4/82/182
f 53/84/183 54/85/184 4/46/185 6/45/186
f 47/66/187 53/86/188 6/87/189
f 48/68/190 47/66/191 6/87/192 17/88/193
f 49/70/194 48/68/195 17/88/196 13/89/197
f 50/72/198 49/70/199 13/89/200 9/90/201
f 8/74/202 50/72/203 9/90/204
f 5/41/205 51/9/206 37/8/207
f 3/42/208 52/5/209 51/4/210 5/43/211
f 3/44/212 34/2/213 52/1/214
f 47/66/215 46/65/216 53/86/217
f 46/63/218 45/62/219 54/85/220 53/84/221
f 45/59/222 44/58/223 54/83/224
